# xmcd
#
# Track frame offsets:
#	150
#	20565
#	41080
#	60750
#	79490
#	99952
#	121410
#	143177
#
# Disc length: 2146 seconds
#
# Revision: 2
# Processed by: cddbd v1.5.2PL0 Copyright (c) Steve Scherf et al.
# Submitted via: EasyCDDAExtractor 15.3.0.1
#
DISCID=63086008
DTITLE=Jailene - Encontre El Amor
DYEAR=1998
DGENRE=Latin
TTITLE0=Encontre El Amor
TTITLE1=Siempre Contigo
TTITLE2=Dos Cosas
TTITLE3=Que Tu Fe Nunca Muera
TTITLE4=Por Tu Amor Vencere
TTITLE5=Se Te Olvido Y Te Vas
TTITLE6=Sin El
TTITLE7=Quiero Y No Puedo Olvidar
EXTD=
EXTT0=
EXTT1=
EXTT2=
EXTT3=
EXTT4=
EXTT5=
EXTT6=
EXTT7=
PLAYORDER=
